<?xml version="1.0" encoding="UTF-8"?>
<svg xmlns="http://www.w3.org/2000/svg" xmlns:xlink="http://www.w3.org/1999/xlink" width="220" height="192" viewBox="0 0 220 192">
<path fill="none" stroke-width="0.4" stroke-linecap="butt" stroke-linejoin="round" stroke="rgb(0%, 0%, 0%)" stroke-opacity="1" stroke-miterlimit="10" d="M 133.96875 778.148438 L 92.566406 709.042969 L 270.066406 741.066406 L 311.46875 810.171875 Z M 133.96875 778.148438 " transform="matrix(1, 0, 0, -1, -92, 811)"/>
<path fill="none" stroke-width="0.4" stroke-linecap="butt" stroke-linejoin="round" stroke="rgb(0%, 0%, 0%)" stroke-opacity="1" stroke-miterlimit="10" d="M 246.394531 767.613281 C 254.96875 781.925781 242.050781 789.941406 217.542969 785.519531 C 193.035156 781.097656 166.21875 765.914063 157.644531 751.601563 C 149.066406 737.289063 161.984375 729.269531 186.492188 733.691406 C 211 738.113281 237.820313 753.300781 246.394531 767.613281 Z M 246.394531 767.613281 " transform="matrix(1, 0, 0, -1, -92, 811)"/>
<path fill="none" stroke-width="0.4" stroke-linecap="butt" stroke-linejoin="round" stroke="rgb(0%, 0%, 0%)" stroke-opacity="1" stroke-miterlimit="10" d="M 241.816406 627.046875 C 255.628906 634.023438 249.011719 643.484375 227.042969 648.175781 C 205.070313 652.867188 176.0625 651.015625 162.25 644.039063 C 148.4375 637.058594 155.054688 627.601563 177.023438 622.910156 C 198.996094 618.21875 228.003906 620.070313 241.816406 627.046875 Z M 241.816406 627.046875 " transform="matrix(1, 0, 0, -1, -92, 811)"/>
<path fill="none" stroke-width="0.4" stroke-linecap="butt" stroke-linejoin="round" stroke="rgb(0%, 0%, 0%)" stroke-opacity="1" stroke-dasharray="1 3" stroke-miterlimit="10" d="M 155.230469 744.410156 C 155.230469 672.046875 155.230469 635.863281 155.230469 635.863281 " transform="matrix(1, 0, 0, -1, -92, 811)"/>
<path fill="none" stroke-width="0.4" stroke-linecap="butt" stroke-linejoin="round" stroke="rgb(0%, 0%, 0%)" stroke-opacity="1" stroke-dasharray="1 3" stroke-miterlimit="10" d="M 249.261719 775.136719 C 249.261719 681.460938 249.261719 634.625 249.261719 634.625 " transform="matrix(1, 0, 0, -1, -92, 811)"/>
<path fill="none" stroke-width="0.4" stroke-linecap="butt" stroke-linejoin="round" stroke="rgb(0%, 0%, 0%)" stroke-opacity="1" stroke-miterlimit="10" d="M 202.195313 760.375 C 202.296875 676.195313 202.34375 634.109375 202.34375 634.109375 " transform="matrix(1, 0, 0, -1, -92, 811)"/>
<path fill="none" stroke-width="0.4" stroke-linecap="butt" stroke-linejoin="round" stroke="rgb(0%, 0%, 0%)" stroke-opacity="1" stroke-miterlimit="10" d="M 163.738281 627.105469 L 244.417969 641.6875 " transform="matrix(1, 0, 0, -1, -92, 811)"/>
<path fill="none" stroke-width="0.4" stroke-linecap="butt" stroke-linejoin="round" stroke="rgb(0%, 0%, 0%)" stroke-opacity="1" stroke-miterlimit="10" d="M 245.753906 629.53125 L 156.160156 639.300781 " transform="matrix(1, 0, 0, -1, -92, 811)"/>
<path fill="none" stroke-width="0.4" stroke-linecap="butt" stroke-linejoin="round" stroke="rgb(0%, 0%, 0%)" stroke-opacity="1" stroke-miterlimit="10" d="M 189.832031 620.96875 L 217.175781 649.796875 " transform="matrix(1, 0, 0, -1, -92, 811)"/>
<path fill="none" stroke-width="0.4" stroke-linecap="butt" stroke-linejoin="round" stroke="rgb(0%, 0%, 0%)" stroke-opacity="1" stroke-miterlimit="10" d="M 213.683594 620.683594 L 188.632813 650.261719 " transform="matrix(1, 0, 0, -1, -92, 811)"/>
<path fill="none" stroke-width="0.4" stroke-linecap="butt" stroke-linejoin="round" stroke="rgb(0%, 0%, 0%)" stroke-opacity="1" stroke-miterlimit="10" d="M 169.902344 646.964844 L 230.320313 623.109375 " transform="matrix(1, 0, 0, -1, -92, 811)"/>
<path fill="none" stroke-width="0.4" stroke-linecap="butt" stroke-linejoin="round" stroke="rgb(0%, 0%, 0%)" stroke-opacity="1" stroke-miterlimit="10" d="M 229.039063 647.726563 L 179.898438 622.339844 " transform="matrix(1, 0, 0, -1, -92, 811)"/>
<path fill="none" stroke-width="0.4" stroke-linecap="butt" stroke-linejoin="round" stroke="rgb(0%, 0%, 0%)" stroke-opacity="1" stroke-miterlimit="10" d="M 241.175781 785.101563 L 162.679688 734.175781 " transform="matrix(1, 0, 0, -1, -92, 811)"/>
<path fill="none" stroke-width="0.4" stroke-linecap="butt" stroke-linejoin="round" stroke="rgb(0%, 0%, 0%)" stroke-opacity="1" stroke-miterlimit="10" d="M 230.5 752.011719 L 174.660156 767.96875 " transform="matrix(1, 0, 0, -1, -92, 811)"/>
<path fill="none" stroke-width="0.4" stroke-linecap="butt" stroke-linejoin="round" stroke="rgb(0%, 0%, 0%)" stroke-opacity="1" stroke-miterlimit="10" d="M 249.015625 776.28125 L 155.230469 744.363281 " transform="matrix(1, 0, 0, -1, -92, 811)"/>
<path fill="none" stroke-width="0.4" stroke-linecap="butt" stroke-linejoin="round" stroke="rgb(0%, 0%, 0%)" stroke-opacity="1" stroke-miterlimit="10" d="M 188.050781 733.988281 L 217.671875 785.542969 " transform="matrix(1, 0, 0, -1, -92, 811)"/>
<path fill="none" stroke-width="0.4" stroke-linecap="butt" stroke-linejoin="round" stroke="rgb(0%, 0%, 0%)" stroke-opacity="1" stroke-miterlimit="10" d="M 214.742188 742.964844 L 191.109375 777.085938 " transform="matrix(1, 0, 0, -1, -92, 811)"/>
<path fill="none" stroke-width="0.4" stroke-linecap="butt" stroke-linejoin="round" stroke="rgb(0%, 0%, 0%)" stroke-opacity="1" stroke-miterlimit="10" d="M 240.84375 760.613281 L 163.996094 759.40625 " transform="matrix(1, 0, 0, -1, -92, 811)"/>
</svg>
